<svg width="48" height="48" viewBox="0 0 48 48" fill="none" xmlns="http://www.w3.org/2000/svg">
<g clip-path="url(#clip0_1480_65395)">
<mask id="mask0_1480_65395" style="mask-type:alpha" maskUnits="userSpaceOnUse" x="12" y="12" width="24" height="24">
<rect x="12" y="12" width="24" height="24" fill="#D9D9D9"/>
</mask>
<g mask="url(#mask0_1480_65395)">
<path d="M21.55 23.9996L28.9 31.3496C29.15 31.5996 29.2708 31.8913 29.2625 32.2246C29.2541 32.558 29.125 32.8496 28.875 33.0996C28.625 33.3496 28.3333 33.4746 28 33.4746C27.6666 33.4746 27.375 33.3496 27.125 33.0996L19.425 25.4246C19.225 25.2246 19.075 24.9996 18.975 24.7496C18.875 24.4996 18.825 24.2496 18.825 23.9996C18.825 23.7496 18.875 23.4996 18.975 23.2496C19.075 22.9996 19.225 22.7746 19.425 22.5746L27.125 14.8746C27.375 14.6246 27.6708 14.5038 28.0125 14.5121C28.3541 14.5205 28.65 14.6496 28.9 14.8996C29.15 15.1496 29.275 15.4413 29.275 15.7746C29.275 16.108 29.15 16.3996 28.9 16.6496L21.55 23.9996Z" fill="#201F82"/>
</g>
</g>
<defs>
<clipPath id="clip0_1480_65395">
<rect width="24" height="24" fill="white" transform="translate(12 12)"/>
</clipPath>
</defs>
</svg>
