<svg width="24" height="24" viewBox="0 0 24 24" fill="none" xmlns="http://www.w3.org/2000/svg">
<path d="M3.36818 7.82859C3.09769 6.8191 3.69676 5.78148 4.70625 5.51099L16.4928 2.35279C17.5023 2.0823 18.5399 2.68137 18.8104 3.69086L20.2197 8.95052C20.4902 9.96001 19.8911 10.9976 18.8817 11.2681L7.09511 14.4263C6.08562 14.6968 5.04799 14.0977 4.7775 13.0883L3.36818 7.82859Z" fill="#0070FF"/>
<path d="M2 7.14948C2 6.10438 2.84722 5.25716 3.89232 5.25716H19.2404C20.2855 5.25716 21.1328 6.10438 21.1328 7.14948V18.1773C21.1328 19.2224 20.2855 20.0696 19.2405 20.0696H3.89232C2.84722 20.0696 2 19.2224 2 18.1773V7.14948Z" fill="#212082"/>
<path d="M9.8788 12.5434C9.8788 11.4983 10.726 10.6511 11.7711 10.6511H20.1077C21.1528 10.6511 22 11.4983 22 12.5434V13.0012C22 14.0463 21.1528 14.8935 20.1077 14.8935H11.7711C10.726 14.8935 9.8788 14.0463 9.8788 13.0012V12.5434Z" fill="#ED9C00"/>
<path d="M21.1327 12.6632C21.1327 13.3449 20.58 13.8976 19.8983 13.8976C19.2166 13.8976 18.6639 13.3449 18.6639 12.6632C18.6639 11.9815 19.2166 11.4288 19.8983 11.4288C20.58 11.4288 21.1327 11.9815 21.1327 12.6632Z" fill="#212082"/>
</svg>
