<svg width="189" height="210" viewBox="0 0 189 210" fill="none" xmlns="http://www.w3.org/2000/svg">
<path d="M159.867 165.422C140.555 234.409 40.384 214.143 30.7755 165.422C24.234 132.252 37.3893 119.377 22.8202 98.5787C30.5376 98.2856 33.4989 100.332 37.2842 106.397C39.921 83.0813 74.0987 62.7127 67.6588 33.9927C76.53 47.0182 87.2279 56.9225 58.5382 95.9219C53.2261 103.143 62.8587 103.19 70.8982 90.8467C78.9377 78.5032 86.3626 66.0826 86.8484 51.8477C87.3341 37.6128 85.1208 17.9148 100.926 0C93.5494 12.277 105.968 27.9342 106.399 36.5329C106.83 45.1315 107.705 54.099 107.426 60.7533C107.146 67.4076 117.143 68.2177 116.529 54.099C116.266 48.0496 112.136 40.6919 112.136 28.5538C116.685 37.269 126.337 45.8427 124.494 61.7763C122.652 77.71 131.647 76.8511 133.832 60.7533C134.952 52.5017 137.471 53.5268 139.617 48.6094C139.617 71.1904 137.388 74.6112 131.65 91.6151C122.279 119.383 142.431 118.898 140.837 100.728C139.378 84.0925 143.16 77.9849 152.635 69.0049C143.042 86.5636 162.703 100.728 147.82 125.947C143.283 133.634 151.842 141.166 155.12 132.037C157.358 125.801 160.585 117.83 166.014 115.235C156.088 128.02 166.34 142.298 159.867 165.422Z" fill="#FFA800"/>
<ellipse cx="96.0321" cy="150.686" rx="58.4043" ry="52.037" transform="rotate(180 96.0321 150.686)" fill="url(#paint0_radial_863_46252)"/>
<path d="M90.9713 175.995C96.3917 178.329 99.4308 178.379 104.851 175.995" stroke="black" stroke-width="2" stroke-linecap="round"/>
<path fill-rule="evenodd" clip-rule="evenodd" d="M79.485 157.992V165.475C79.485 169.341 76.351 172.475 72.485 172.475H65.0018H63.3444V172.381C56.1261 171.559 50.5187 165.43 50.5187 157.992C50.5187 149.993 57.003 143.509 65.0018 143.509C72.4402 143.509 78.5688 149.116 79.3912 156.334H79.485V157.992Z" fill="#070A0E"/>
<circle cx="70.4175" cy="152.037" r="4.29749" fill="#D9D9D9"/>
<path fill-rule="evenodd" clip-rule="evenodd" d="M112.579 157.992V165.475C112.579 169.341 115.713 172.475 119.579 172.475H127.063H128.72V172.381C135.938 171.559 141.546 165.43 141.546 157.992C141.546 149.993 135.061 143.509 127.063 143.509C119.624 143.509 113.496 149.116 112.673 156.334H112.579V157.992Z" fill="#070A0E"/>
<circle cx="132.478" cy="152.037" r="4.29749" fill="#D9D9D9"/>
<path fill-rule="evenodd" clip-rule="evenodd" d="M180.86 170.875C181.308 172.259 181.679 173.262 181.987 174.092C182.898 176.554 183.241 177.478 183.316 182.228C183.329 182.298 183.343 182.368 183.355 182.439C184.244 185.689 185.857 184.799 188.835 178.823C188.527 179.491 188.241 180.123 187.967 180.728C186.039 184.99 184.722 187.904 180.652 192.439C178.431 195.043 175.126 196.694 171.435 196.694C164.747 196.694 159.326 191.272 159.326 184.584C159.326 177.897 164.747 172.475 171.435 172.475C174.622 172.475 177.522 173.706 179.684 175.719C181.767 176.954 182.457 176.37 180.86 170.875Z" fill="#FFA800"/>
<path fill-rule="evenodd" clip-rule="evenodd" d="M7.97498 170.875C7.52702 172.259 7.15524 173.262 6.84809 174.092C5.93612 176.554 5.59387 177.478 5.51909 182.228C5.50525 182.298 5.49201 182.368 5.47939 182.439C4.59029 185.689 2.97733 184.799 0 178.823C0.307854 179.491 0.593798 180.123 0.867449 180.728C2.79515 184.99 4.11287 187.904 8.18254 192.439C10.4036 195.043 13.7086 196.694 17.3993 196.694C24.0871 196.694 29.5087 191.272 29.5087 184.584C29.5087 177.897 24.0871 172.475 17.3993 172.475C14.2121 172.475 11.3126 173.706 9.15031 175.719C7.0671 176.954 6.37781 176.37 7.97498 170.875Z" fill="#FFA800"/>
<defs>
<radialGradient id="paint0_radial_863_46252" cx="0" cy="0" r="1" gradientUnits="userSpaceOnUse" gradientTransform="translate(96.0321 98.6487) rotate(90) scale(109.915 99.7857)">
<stop stop-color="#FF4900"/>
<stop offset="0.786458" stop-color="#FF4900" stop-opacity="0"/>
</radialGradient>
</defs>
</svg>
