<svg width="44" height="44" viewBox="0 0 44 44" fill="none" xmlns="http://www.w3.org/2000/svg">
<circle cx="22" cy="22" r="22" fill="#212082"/>
<g filter="url(#filter0_b_1575_6321)">
<path fill-rule="evenodd" clip-rule="evenodd" d="M14.6667 18.2875C12.4137 18.2875 10.5873 20.1139 10.5873 22.3669C10.5873 24.6199 12.4137 26.4463 14.6667 26.4463C16.9197 26.4463 18.7461 24.6199 18.7461 22.3669C18.7461 20.1139 16.9197 18.2875 14.6667 18.2875ZM5.5 22.3669C5.5 17.3043 9.60406 13.2002 14.6667 13.2002C19.7293 13.2002 23.8333 17.3043 23.8333 22.3669C23.8333 27.4295 19.7293 31.5335 14.6667 31.5335C9.60406 31.5335 5.5 27.4295 5.5 22.3669Z" fill="url(#paint0_radial_1575_6321)"/>
</g>
<g filter="url(#filter1_b_1575_6321)">
<path fill-rule="evenodd" clip-rule="evenodd" d="M29.3332 18.2875C27.0802 18.2875 25.2538 20.1139 25.2538 22.3669C25.2538 24.6199 27.0802 26.4463 29.3332 26.4463C31.5862 26.4463 33.4126 24.6199 33.4126 22.3669C33.4126 20.1139 31.5862 18.2875 29.3332 18.2875ZM20.1665 22.3669C20.1665 17.3043 24.2706 13.2002 29.3332 13.2002C34.3958 13.2002 38.4998 17.3043 38.4998 22.3669C38.4998 27.4295 34.3958 31.5335 29.3332 31.5335C24.2706 31.5335 20.1665 27.4295 20.1665 22.3669Z" fill="url(#paint1_linear_1575_6321)" fill-opacity="0.5"/>
</g>
<defs>
<filter id="filter0_b_1575_6321" x="-40.7" y="-32.9998" width="110.733" height="110.733" filterUnits="userSpaceOnUse" color-interpolation-filters="sRGB">
<feFlood flood-opacity="0" result="BackgroundImageFix"/>
<feGaussianBlur in="BackgroundImageFix" stdDeviation="23.1"/>
<feComposite in2="SourceAlpha" operator="in" result="effect1_backgroundBlur_1575_6321"/>
<feBlend mode="normal" in="SourceGraphic" in2="effect1_backgroundBlur_1575_6321" result="shape"/>
</filter>
<filter id="filter1_b_1575_6321" x="-1.8335" y="-8.79981" width="62.3334" height="62.333" filterUnits="userSpaceOnUse" color-interpolation-filters="sRGB">
<feFlood flood-opacity="0" result="BackgroundImageFix"/>
<feGaussianBlur in="BackgroundImageFix" stdDeviation="11"/>
<feComposite in2="SourceAlpha" operator="in" result="effect1_backgroundBlur_1575_6321"/>
<feBlend mode="normal" in="SourceGraphic" in2="effect1_backgroundBlur_1575_6321" result="shape"/>
</filter>
<radialGradient id="paint0_radial_1575_6321" cx="0" cy="0" r="1" gradientUnits="userSpaceOnUse" gradientTransform="translate(1.22862 13.4882) rotate(42.8481) scale(28.0171)">
<stop stop-color="white"/>
<stop offset="1" stop-color="white"/>
</radialGradient>
<linearGradient id="paint1_linear_1575_6321" x1="35.1883" y1="13.5841" x2="23.334" y2="30.9096" gradientUnits="userSpaceOnUse">
<stop stop-color="white"/>
<stop offset="1" stop-color="white"/>
</linearGradient>
</defs>
</svg>
