<svg width="210" height="175" viewBox="0 0 210 175" fill="none" xmlns="http://www.w3.org/2000/svg">
<path d="M73.202 45.532L70.1013 32.3862L59.1307 41.2033L71.3018 47.0592L73.202 45.532ZM81.547 55.9151L72.4384 44.5819L70.5383 46.1091L79.6468 57.4423L81.547 55.9151Z" fill="#201F82" fill-opacity="0.25"/>
<path d="M137.075 46.8322L149.434 41.3837L138.762 32.2072L135.227 45.2428L137.075 46.8322ZM128.449 56.864L137.87 45.908L136.021 44.3186L126.6 55.2746L128.449 56.864Z" fill="#201F82" fill-opacity="0.25"/>
<path d="M158.156 89.8129L170.251 95.8225L170.473 81.7496L158.194 87.3754L158.156 89.8129ZM143.961 89.5894L159.374 89.8321L159.413 87.3946L143.999 87.1519L143.961 89.5894Z" fill="#201F82" fill-opacity="0.25"/>
<path d="M81.0649 15.2471H126.589" stroke="#201F82" stroke-opacity="0.25" stroke-width="2.43781" stroke-linecap="round"/>
<path d="M81.0649 158.823H126.589" stroke="#201F82" stroke-opacity="0.25" stroke-width="2.43781" stroke-linecap="round"/>
<path d="M186.037 66.7871L172.113 32.756" stroke="#201F82" stroke-opacity="0.25" stroke-width="2.43781" stroke-linecap="round"/>
<path d="M23.2844 66.7871L37.2083 32.756" stroke="#201F82" stroke-opacity="0.25" stroke-width="2.43781" stroke-linecap="round"/>
<path d="M186.037 109.797L172.113 143.828" stroke="#201F82" stroke-opacity="0.25" stroke-width="2.43781" stroke-linecap="round"/>
<path d="M23.2844 109.797L37.2083 143.828" stroke="#201F82" stroke-opacity="0.25" stroke-width="2.43781" stroke-linecap="round"/>
<path d="M49.5149 87.7606L37.3259 81.9422V96.0168L49.5149 90.1984V87.7606ZM64.7512 87.7606H48.296V90.1984H64.7512V87.7606Z" fill="#201F82" fill-opacity="0.25"/>
<path d="M63.6966 137.012C63.2547 137.519 63.308 138.289 63.8158 138.731C64.3235 139.173 65.0935 139.12 65.5354 138.612L63.6966 137.012ZM79.6775 118.652L63.6966 137.012L65.5354 138.612L81.5163 120.252L79.6775 118.652Z" fill="#201F82" fill-opacity="0.25"/>
<path d="M143.178 138.612C143.62 139.12 144.39 139.173 144.898 138.732C145.406 138.29 145.46 137.52 145.018 137.012L143.178 138.612ZM127.214 120.252L143.178 138.612L145.018 137.012L129.054 118.652L127.214 120.252Z" fill="#201F82" fill-opacity="0.25"/>
<rect x="177.888" y="78.2734" width="26.7224" height="15.4278" rx="3.16302" transform="rotate(-15 177.888 78.2734)" fill="#201F82"/>
<rect x="176.42" y="77.0308" width="31.9806" height="24.7592" rx="3.16302" fill="#8FD0EE"/>
<rect x="201.086" y="85.8975" width="8.76489" height="7.13422" rx="3.16302" fill="#201F82"/>
<circle cx="206.338" cy="89.4095" r="2.06326" fill="#8FD0EE"/>
<g clip-path="url(#clip0_777_45130)">
<path d="M184.763 92.9109C184.854 92.8197 184.977 92.7686 185.106 92.7686H197.002C197.219 92.7686 197.328 93.0306 197.174 93.1838L194.824 95.5325C194.732 95.6237 194.609 95.6749 194.48 95.6749H182.584C182.367 95.6749 182.259 95.4128 182.412 95.2596L184.763 92.9109Z" fill="white"/>
<path d="M184.763 84.1418C184.854 84.0507 184.977 83.9995 185.106 83.9995H197.002C197.219 83.9995 197.328 84.2616 197.174 84.4147L194.824 86.7635C194.732 86.8546 194.609 86.9058 194.48 86.9058H182.584C182.367 86.9058 182.259 86.6438 182.412 86.4906L184.763 84.1418Z" fill="white"/>
<path d="M194.824 88.5158C194.732 88.4247 194.609 88.3735 194.48 88.3735H182.584C182.367 88.3735 182.259 88.6356 182.412 88.7888L184.763 91.1375C184.854 91.2286 184.977 91.2798 185.106 91.2798H197.002C197.219 91.2798 197.328 91.0178 197.174 90.8646L194.824 88.5158Z" fill="white"/>
</g>
<rect x="138.426" y="150.739" width="26.7224" height="15.4278" rx="3.16302" transform="rotate(-15 138.426 150.739)" fill="#201F82"/>
<rect x="136.958" y="149.496" width="31.9806" height="24.7592" rx="3.16302" fill="#8FD0EE"/>
<rect x="161.623" y="158.363" width="8.76489" height="7.13422" rx="3.16302" fill="#201F82"/>
<circle cx="166.875" cy="161.875" r="2.06326" fill="#8FD0EE"/>
<path d="M154.145 159.644C154.012 158.197 152.788 157.698 151.217 157.548V155.52H149.992V157.482C149.678 157.482 149.331 157.482 149 157.482V155.503H147.775L147.792 157.515C147.527 157.515 145.344 157.532 145.344 157.532V158.812H146.899V165.281H145.525L145.509 166.761C145.509 166.761 147.445 166.745 147.726 166.761V168.79H148.933V166.778C149.264 166.795 149.595 166.795 149.91 166.795V168.79H151.134V166.761C153.185 166.662 154.608 166.146 154.807 164.217C154.955 162.67 154.244 161.955 153.086 161.673C153.797 161.34 154.244 160.708 154.145 159.644ZM152.408 163.968C152.391 165.481 149.827 165.298 149.016 165.298V162.604C149.827 162.604 152.424 162.388 152.408 163.968ZM151.862 160.176C151.845 161.556 149.711 161.39 149.033 161.373V158.929C149.711 158.929 151.878 158.729 151.862 160.176Z" fill="white"/>
<rect x="138.426" y="6.91602" width="26.7224" height="15.4278" rx="3.16302" transform="rotate(-15 138.426 6.91602)" fill="#201F82"/>
<rect x="136.958" y="5.67334" width="31.9806" height="24.7592" rx="3.16302" fill="#8FD0EE"/>
<rect x="161.623" y="14.5405" width="8.76489" height="7.13422" rx="3.16302" fill="#201F82"/>
<circle cx="166.875" cy="18.0525" r="2.06326" fill="#8FD0EE"/>
<path d="M147.791 14.3387L146.289 13.466L150.373 11.0781L154.47 13.466L152.968 14.3387L150.373 12.8357L147.791 14.3387ZM155.539 15.8417V17.5993L157.041 16.7266V14.969L155.539 14.0842L154.037 14.9569L155.539 15.8417ZM148.872 14.969L150.373 15.8417L151.875 14.969L150.373 14.0842L148.872 14.969ZM154.47 16.472L152.968 15.5993L150.373 17.1023L147.791 15.5993L146.289 16.472V18.2296L148.872 19.7326V22.7386L150.373 23.6113L151.875 22.7386V19.7326L154.47 18.2296V16.472ZM155.539 21.8659L152.956 23.369V25.1265L157.053 22.7386V17.975L155.539 18.8599V21.8659ZM152.956 22.1204L154.458 21.2477V19.478L152.956 20.3508V22.1204ZM148.872 23.9992V25.7568L150.373 26.6295L151.875 25.7568V23.9992L150.373 24.872L148.872 23.9992ZM143.694 16.7266L145.196 17.5993V15.8417L146.698 14.969L145.208 14.0842L143.706 14.9569V16.7266H143.694ZM145.208 18.8599L143.706 17.9872V22.7508L147.803 25.1386V23.3811L145.208 21.8659V18.8599ZM147.791 20.3629L146.289 19.4902V21.2477L147.791 22.1204V20.3629Z" fill="white"/>
<rect x="38.7593" y="150.739" width="26.7224" height="15.4278" rx="3.16302" transform="rotate(-15 38.7593 150.739)" fill="#201F82"/>
<rect x="37.291" y="149.496" width="31.9806" height="24.7592" rx="3.16302" fill="#8FD0EE"/>
<rect x="61.9565" y="158.363" width="8.76489" height="7.13422" rx="3.16302" fill="#201F82"/>
<circle cx="67.2083" cy="161.875" r="2.06326" fill="#8FD0EE"/>
<path fill-rule="evenodd" clip-rule="evenodd" d="M42.6401 161.939C42.6401 165.785 45.758 168.903 49.6042 168.903C53.4503 168.903 56.5682 165.785 56.5682 161.939C56.5682 158.093 53.4503 154.975 49.6042 154.975C45.758 154.975 42.6401 158.093 42.6401 161.939ZM47.8245 159.695C47.5681 159.695 47.3602 159.903 47.3602 160.159V163.718C47.3602 163.975 47.5681 164.183 47.8245 164.183H51.3839C51.6403 164.183 51.8482 163.975 51.8482 163.718V160.159C51.8482 159.903 51.6403 159.695 51.3839 159.695H47.8245Z" fill="white"/>
<rect x="38.7593" y="6.91602" width="26.7224" height="15.4278" rx="3.16302" transform="rotate(-15 38.7593 6.91602)" fill="#201F82"/>
<rect x="37.291" y="5.67334" width="31.9806" height="24.7592" rx="3.16302" fill="#8FD0EE"/>
<rect x="61.9565" y="14.5405" width="8.76489" height="7.13422" rx="3.16302" fill="#201F82"/>
<circle cx="67.2083" cy="18.0525" r="2.06326" fill="#8FD0EE"/>
<path fill-rule="evenodd" clip-rule="evenodd" d="M46.2377 24.8503C46.1491 24.9043 46.0336 24.8793 45.9753 24.7933L45.7521 24.4642C45.6938 24.3782 45.7134 24.2618 45.7952 24.1979C46.5304 23.6225 47.1347 22.974 47.61 22.2795C49.3797 19.6933 49.3797 16.4388 47.61 13.8527C47.1347 13.1581 46.5304 12.5096 45.7952 11.9343C45.7134 11.8703 45.6938 11.7539 45.7521 11.668L45.9753 11.3388C46.0336 11.2529 46.1491 11.2278 46.2377 11.2819L56.1532 17.3269C56.7066 17.6643 56.7066 18.4679 56.1532 18.8052L46.2377 24.8503Z" fill="url(#paint0_linear_777_45130)"/>
<rect x="1.61768" y="78.2734" width="26.7224" height="15.4278" rx="3.16302" transform="rotate(-15 1.61768 78.2734)" fill="#201F82"/>
<rect x="0.149414" y="77.0308" width="31.9806" height="24.7592" rx="3.16302" fill="#8FD0EE"/>
<rect x="24.8149" y="85.8975" width="8.76489" height="7.13422" rx="3.16302" fill="#201F82"/>
<circle cx="30.0667" cy="89.4095" r="2.06326" fill="#8FD0EE"/>
<path fill-rule="evenodd" clip-rule="evenodd" d="M13.8487 82.5176L16.3978 86.3263L18.947 90.1359L13.8487 92.7044L8.75049 90.1262L11.2996 86.3166L13.8487 82.5176ZM13.8487 93.7305L9.03323 91.1611L13.8487 97.7348L18.6642 91.1611L13.8487 93.7305Z" fill="white"/>
<path fill-rule="evenodd" clip-rule="evenodd" d="M13.8486 82.5176L16.3978 86.3166L18.9469 90.1262L13.8486 88.2016V82.5176Z" fill="white"/>
<path fill-rule="evenodd" clip-rule="evenodd" d="M13.8486 93.7305L18.6738 91.1611L13.8486 97.7444V93.7305Z" fill="white"/>
<path fill-rule="evenodd" clip-rule="evenodd" d="M13.8486 88.2017L18.9469 90.1263L13.8486 92.6948V88.2017Z" fill="white"/>
<path fill-rule="evenodd" clip-rule="evenodd" d="M13.8487 82.5176L11.2996 86.3166L8.75049 90.1262L13.8487 88.2016V82.5176Z" fill="white"/>
<path fill-rule="evenodd" clip-rule="evenodd" d="M13.8487 93.7305L9.0332 91.1611L13.8487 97.7444V93.7305Z" fill="white"/>
<path fill-rule="evenodd" clip-rule="evenodd" d="M13.8487 88.2017L8.75049 90.1263L13.8487 92.6948V88.2017Z" fill="white"/>
<g opacity="0.75" filter="url(#filter0_d_777_45130)">
<path d="M141.2 88.0055C141.2 108.901 124.651 125.734 104.366 125.734C84.0803 125.734 67.5307 108.901 67.5307 88.0055C67.5307 67.1098 84.0803 50.277 104.366 50.277C124.651 50.277 141.2 67.1098 141.2 88.0055Z" stroke="#FFA800" stroke-width="5.55888" shape-rendering="crispEdges"/>
</g>
<rect x="81.3987" y="70.1543" width="41.3689" height="23.8837" rx="4.89667" transform="rotate(-15 81.3987 70.1543)" fill="#D2D2D2"/>
<rect x="79.1257" y="68.2305" width="49.5091" height="38.3296" rx="4.89667" fill="#201F82"/>
<rect x="117.31" y="81.9575" width="13.5689" height="11.0445" rx="4.89667" fill="#FFA800"/>
<circle cx="125.44" cy="87.3943" r="3.19414" fill="#201F82"/>
<path fill-rule="evenodd" clip-rule="evenodd" d="M105.994 95.5748C110.507 95.5748 114.167 91.9157 114.167 87.4019C114.167 82.8881 110.507 79.229 105.994 79.229C101.48 79.229 97.8208 82.8881 97.8208 87.4019C97.8208 91.9157 101.48 95.5748 105.994 95.5748ZM105.994 91.1482C108.063 91.1482 109.74 89.4711 109.74 87.4023C109.74 85.3335 108.063 83.6564 105.994 83.6564C103.925 83.6564 102.248 85.3335 102.248 87.4023C102.248 89.4711 103.925 91.1482 105.994 91.1482Z" fill="white"/>
<path fill-rule="evenodd" clip-rule="evenodd" d="M105.994 95.5748C110.507 95.5748 114.167 91.9157 114.167 87.4019C114.167 82.8881 110.507 79.229 105.994 79.229C101.48 79.229 97.8208 82.8881 97.8208 87.4019C97.8208 91.9157 101.48 95.5748 105.994 95.5748ZM105.994 91.1482C108.063 91.1482 109.74 89.4711 109.74 87.4023C109.74 85.3335 108.063 83.6564 105.994 83.6564C103.925 83.6564 102.248 85.3335 102.248 87.4023C102.248 89.4711 103.925 91.1482 105.994 91.1482Z" fill="white"/>
<path fill-rule="evenodd" clip-rule="evenodd" d="M98.8002 82.2864C97.3022 80.4228 95.0037 79.23 92.4266 79.23C87.9128 79.23 84.2537 82.8891 84.2537 87.4029C84.2537 91.9167 87.9128 95.5758 92.4266 95.5758C95.0039 95.5758 97.3026 94.3828 98.8006 92.5189C97.7721 91.0756 97.1672 89.3096 97.1672 87.4024C97.1672 85.4954 97.772 83.7296 98.8002 82.2864ZM92.4268 91.149C94.4956 91.149 96.1727 89.4718 96.1727 87.403C96.1727 85.3342 94.4956 83.6571 92.4268 83.6571C90.358 83.6571 88.6809 85.3342 88.6809 87.403C88.6809 89.4718 90.358 91.149 92.4268 91.149Z" fill="white"/>
<defs>
<filter id="filter0_d_777_45130" x="56.81" y="39.5563" width="95.1113" height="96.8981" filterUnits="userSpaceOnUse" color-interpolation-filters="sRGB">
<feFlood flood-opacity="0" result="BackgroundImageFix"/>
<feColorMatrix in="SourceAlpha" type="matrix" values="0 0 0 0 0 0 0 0 0 0 0 0 0 0 0 0 0 0 127 0" result="hardAlpha"/>
<feOffset/>
<feGaussianBlur stdDeviation="3.97063"/>
<feComposite in2="hardAlpha" operator="out"/>
<feColorMatrix type="matrix" values="0 0 0 0 0.12549 0 0 0 0 0.121569 0 0 0 0 0.509804 0 0 0 1 0"/>
<feBlend mode="normal" in2="BackgroundImageFix" result="effect1_dropShadow_777_45130"/>
<feBlend mode="normal" in="SourceGraphic" in2="effect1_dropShadow_777_45130" result="shape"/>
</filter>
<linearGradient id="paint0_linear_777_45130" x1="57.8346" y1="18.1868" x2="41.7283" y2="18.1868" gradientUnits="userSpaceOnUse">
<stop stop-color="white"/>
<stop offset="1" stop-color="white"/>
</linearGradient>
<clipPath id="clip0_777_45130">
<rect width="15.1392" height="15.1392" fill="white" transform="translate(182.223 82.2568)"/>
</clipPath>
</defs>
</svg>
