<svg width="18" height="18" viewBox="0 0 18 18" fill="none" xmlns="http://www.w3.org/2000/svg">
<g clip-path="url(#clip0_290_27971)">
<path d="M15.2415 4.75288C13.3266 4.75288 11.4606 4.07479 9.63271 2.7035C9.53936 2.63349 9.42582 2.59564 9.30912 2.59564C9.19243 2.59564 9.07889 2.63349 8.98554 2.7035C7.15764 4.07479 5.29162 4.75288 3.37671 4.75288C3.23368 4.75288 3.0965 4.8097 2.99536 4.91084C2.89422 5.01198 2.8374 5.14916 2.8374 5.29219V9.06737C2.8374 12.6635 4.96444 15.3061 9.11138 16.9399C9.23845 16.9899 9.3798 16.9899 9.50687 16.9399C13.6538 15.3061 15.7808 12.6628 15.7808 9.06737V5.29219C15.7808 5.14916 15.724 5.01198 15.6229 4.91084C15.5217 4.8097 15.3846 4.75288 15.2415 4.75288ZM12.7298 7.84709L8.41531 11.802C8.31282 11.8959 8.17807 11.9465 8.03914 11.9435C7.90022 11.9404 7.76785 11.8838 7.66962 11.7855L5.87192 9.98779C5.81893 9.93842 5.77644 9.87888 5.74696 9.81272C5.71748 9.74657 5.70163 9.67515 5.70035 9.60274C5.69908 9.53032 5.7124 9.4584 5.73952 9.39124C5.76665 9.32409 5.80702 9.26309 5.85823 9.21187C5.90944 9.16066 5.97045 9.12029 6.0376 9.09317C6.10475 9.06604 6.17668 9.05272 6.24909 9.054C6.32151 9.05528 6.39292 9.07113 6.45908 9.1006C6.52523 9.13008 6.58477 9.17258 6.63415 9.22556L8.06727 10.658L12.0006 7.05178C12.1061 6.95509 12.2457 6.90426 12.3886 6.91046C12.5315 6.91666 12.6662 6.9794 12.7629 7.08486C12.8596 7.19033 12.9104 7.32988 12.9042 7.47283C12.898 7.61577 12.8353 7.7504 12.7298 7.84709Z" fill="#00D395"/>
</g>
<defs>
<clipPath id="clip0_290_27971">
<rect width="17.2579" height="17.2579" fill="white" transform="translate(0.680176 0.438354)"/>
</clipPath>
</defs>
</svg>
