<svg width="87" height="68" viewBox="0 0 87 68" fill="none" xmlns="http://www.w3.org/2000/svg">
<path d="M85.6288 25.0125C85.6288 37.6907 75.3615 47.9684 62.6961 47.9684C50.0307 47.9684 39.7633 37.6907 39.7633 25.0125C39.7633 12.3343 50.0307 2.05664 62.6961 2.05664C75.3615 2.05664 85.6288 12.3343 85.6288 25.0125Z" fill="white" stroke="#212082" stroke-width="2.28659"/>
<ellipse cx="48.1025" cy="43.7948" rx="22.9328" ry="22.9559" fill="#403FBC" stroke="#212082" stroke-width="2.28659"/>
<path d="M47.6198 29.418L61.1514 52.8555H34.0881L47.6198 29.418Z" fill="white" stroke="#201F82" stroke-width="2.28659" stroke-linejoin="round"/>
<path d="M9.80825 1.19157C9.36176 0.745086 8.63787 0.745086 8.19139 1.19157L0.915517 8.46744C0.469033 8.91392 0.469033 9.63782 0.915517 10.0843C1.362 10.5308 2.08589 10.5308 2.53238 10.0843L8.99982 3.61686L15.4673 10.0843C15.9137 10.5308 16.6376 10.5308 17.0841 10.0843C17.5306 9.63782 17.5306 8.91392 17.0841 8.46744L9.80825 1.19157ZM7.85652 55C7.85652 55.6314 8.36839 56.1433 8.99981 56.1433C9.63124 56.1433 10.1431 55.6314 10.1431 55L7.85652 55ZM7.85652 2L7.85652 55L10.1431 55L10.1431 2L7.85652 2Z" fill="#212082"/>
</svg>
