<svg width="30" height="29" viewBox="0 0 30 29" fill="none" xmlns="http://www.w3.org/2000/svg">
<path fill-rule="evenodd" clip-rule="evenodd" d="M27.1102 4.2648C27.8912 3.48375 27.8912 2.21742 27.1102 1.43637C26.3292 0.655324 25.0628 0.655324 24.2818 1.43637L17.6706 8.04755H5.85923C3.04503 8.04755 0.763672 10.3289 0.763672 13.1431V14.1934C0.763672 22.0559 7.13754 28.4298 15.0001 28.4298C22.8627 28.4298 29.2365 22.0559 29.2365 14.1934V13.1431C29.2365 10.3289 26.9552 8.04755 24.141 8.04755H23.3274L27.1102 4.2648ZM19.3797 15.1392C19.3797 15.9196 20.0124 16.5522 20.7928 16.5522C21.5732 16.5522 22.2059 15.9196 22.2059 15.1392C22.2059 14.3587 21.5732 13.7261 20.7928 13.7261C20.0124 13.7261 19.3797 14.3587 19.3797 15.1392ZM9.90057 16.5522C9.12016 16.5522 8.4875 15.9196 8.4875 15.1392C8.4875 14.3587 9.12016 13.7261 9.90057 13.7261C10.681 13.7261 11.3136 14.3587 11.3136 15.1392C11.3136 15.9196 10.681 16.5522 9.90057 16.5522Z" fill="#212082"/>
</svg>
