<svg width="206" height="146" viewBox="0 0 206 146" fill="none" xmlns="http://www.w3.org/2000/svg">
<path fill-rule="evenodd" clip-rule="evenodd" d="M134.245 75.6444C155.036 75.6444 171.89 58.7902 171.89 37.9994C171.89 17.2087 155.036 0.354492 134.245 0.354492C113.454 0.354492 96.6002 17.2087 96.6002 37.9994C96.6002 58.7902 113.454 75.6444 134.245 75.6444ZM134.246 55.2554C143.775 55.2554 151.5 47.5306 151.5 38.0015C151.5 28.4724 143.775 20.7475 134.246 20.7475C124.717 20.7475 116.992 28.4724 116.992 38.0015C116.992 47.5306 124.717 55.2554 134.246 55.2554Z" fill="white"/>
<path fill-rule="evenodd" clip-rule="evenodd" d="M134.245 75.6444C155.036 75.6444 171.89 58.7902 171.89 37.9994C171.89 17.2087 155.036 0.354492 134.245 0.354492C113.454 0.354492 96.6002 17.2087 96.6002 37.9994C96.6002 58.7902 113.454 75.6444 134.245 75.6444ZM134.246 55.2554C143.775 55.2554 151.5 47.5306 151.5 38.0015C151.5 28.4724 143.775 20.7475 134.246 20.7475C124.717 20.7475 116.992 28.4724 116.992 38.0015C116.992 47.5306 124.717 55.2554 134.246 55.2554Z" fill="white"/>
<path fill-rule="evenodd" clip-rule="evenodd" d="M101.112 14.4333C94.2121 5.84947 83.6251 0.355469 71.7548 0.355469C50.9641 0.355469 34.1099 17.2097 34.1099 38.0004C34.1099 58.7912 50.9641 75.6454 71.7548 75.6454C83.6254 75.6454 94.2127 70.1511 101.112 61.5668C96.3753 54.9189 93.589 46.7847 93.589 37.9997C93.589 29.2151 96.3751 21.0811 101.112 14.4333ZM71.7553 55.2564C81.2844 55.2564 89.0093 47.5315 89.0093 38.0024C89.0093 28.4734 81.2844 20.7485 71.7553 20.7485C62.2262 20.7485 54.5014 28.4734 54.5014 38.0024C54.5014 47.5315 62.2262 55.2564 71.7553 55.2564Z" fill="white"/>
<path d="M12.6251 131.646V117.818H23.2662L25.7311 110.063H12.6251V99.0006H30.4806L27.9556 91.3654H4.44884C4.02801 97.4976 3.78753 104.051 3.78753 109.522V131.646H12.6251ZM35.989 99.7822V131.646H44.8266V99.7822H35.989ZM45.0671 97.2572V87.7583H35.6283V97.2572H45.0671ZM53.7788 101.165C53.2377 106.335 52.9371 111.445 52.9371 117.397V131.646H61.8348V117.457C61.8348 113.129 61.8348 109.702 62.1354 107.117C63.5181 106.876 67.8467 106.636 71.3938 106.636L69.3497 99.0607C63.939 99.0607 56.905 99.7822 53.7788 101.165ZM101.912 119.201C102.574 117.036 102.634 115.053 102.634 113.489C102.634 103.57 97.3433 99.0607 89.1671 99.0607C79.7884 99.0607 74.4378 103.81 74.4378 115.173C74.4378 127.618 80.9908 132.066 91.5719 132.066C93.7963 132.066 96.3213 131.766 98.666 131.225L100.951 123.71C98.666 124.251 96.2011 124.792 93.676 124.792C87.3034 124.792 84.6581 122.567 83.6962 119.201H101.912ZM89.1671 106.215C91.632 106.215 93.8564 108.079 93.8564 111.746H83.4557C84.2373 107.598 86.4617 106.215 89.1671 106.215ZM110.048 101.165C109.567 105.794 109.266 110.363 109.266 115.654V140.964H118.164V130.263C120.328 131.044 122.493 131.525 125.078 131.525C134.516 131.525 139.446 127.557 139.446 115.533C139.446 103.57 134.516 99.0607 123.695 99.0607C118.525 99.0607 114.196 99.7822 110.048 101.165ZM123.154 124.431C121.29 124.431 119.667 124.07 118.164 123.71V106.936C119.426 106.395 121.17 106.155 123.154 106.155C127.663 106.155 130.188 108.68 130.188 115.594C130.188 122.087 127.663 124.431 123.154 124.431ZM160.968 132.247C172.09 132.247 177.02 126.716 177.02 115.834C177.02 104.952 172.09 99.0607 160.908 99.0607C149.726 99.0607 144.916 105.073 144.916 115.834C144.916 126.595 149.726 132.247 160.968 132.247ZM160.968 106.335C165.477 106.335 167.701 109.281 167.701 115.834C167.701 122.447 165.477 124.912 160.968 124.912C156.519 124.912 154.235 122.387 154.235 115.834C154.235 109.281 156.519 106.335 160.968 106.335ZM180.973 106.876H186.564V115.533C186.564 126.836 191.734 132.247 201.534 132.247L204.72 124.972C197.866 124.972 195.402 122.087 195.402 114.872V106.876H202.916L204.72 99.7822H195.402V90.7041L186.564 93.7101V99.7822H182.776L180.973 106.876Z" fill="white"/>
</svg>
