<svg width="20" height="20" viewBox="0 0 20 20" fill="none" xmlns="http://www.w3.org/2000/svg">
<rect width="8.51236" height="8.51236" rx="2.5" fill="#212082"/>
<path fill-rule="evenodd" clip-rule="evenodd" d="M6.72893 12.7421H1.78344C1.66032 12.7421 1.56051 12.842 1.56051 12.9651V17.9106C1.56051 18.0337 1.66032 18.1335 1.78344 18.1335H6.72893C6.85205 18.1335 6.95186 18.0337 6.95186 17.9106V12.9651C6.95186 12.842 6.85205 12.7421 6.72893 12.7421ZM1.78344 11.1816C0.798472 11.1816 0 11.9801 0 12.9651V17.9106C0 18.8955 0.798472 19.694 1.78344 19.694H6.72893C7.71389 19.694 8.51236 18.8955 8.51236 17.9106V12.9651C8.51236 11.9801 7.71389 11.1816 6.72893 11.1816H1.78344Z" fill="#212082"/>
<path fill-rule="evenodd" clip-rule="evenodd" d="M17.9104 1.56051H12.965C12.8418 1.56051 12.742 1.66032 12.742 1.78344V6.72893C12.742 6.85205 12.8418 6.95186 12.965 6.95186H17.9104C18.0336 6.95186 18.1334 6.85205 18.1334 6.72893V1.78344C18.1334 1.66032 18.0336 1.56051 17.9104 1.56051ZM12.965 0C11.98 0 11.1815 0.798472 11.1815 1.78344V6.72893C11.1815 7.71389 11.98 8.51236 12.965 8.51236H17.9104C18.8954 8.51236 19.6939 7.71389 19.6939 6.72893V1.78344C19.6939 0.798472 18.8954 0 17.9104 0H12.965Z" fill="#212082"/>
<path fill-rule="evenodd" clip-rule="evenodd" d="M17.9104 12.7421H12.965C12.8418 12.7421 12.742 12.842 12.742 12.9651V17.9106C12.742 18.0337 12.8418 18.1335 12.965 18.1335H17.9104C18.0336 18.1335 18.1334 18.0337 18.1334 17.9106V12.9651C18.1334 12.842 18.0336 12.7421 17.9104 12.7421ZM12.965 11.1816C11.98 11.1816 11.1815 11.9801 11.1815 12.9651V17.9106C11.1815 18.8955 11.98 19.694 12.965 19.694H17.9104C18.8954 19.694 19.6939 18.8955 19.6939 17.9106V12.9651C19.6939 11.9801 18.8954 11.1816 17.9104 11.1816H12.965Z" fill="#212082"/>
</svg>
