<svg width="18" height="18" viewBox="0 0 18 18" fill="none" xmlns="http://www.w3.org/2000/svg">
<g clip-path="url(#clip0_1279_53832)">
<mask id="mask0_1279_53832" style="mask-type:alpha" maskUnits="userSpaceOnUse" x="0" y="0" width="18" height="18">
<rect width="18" height="18" fill="#D9D9D9"/>
</mask>
<g mask="url(#mask0_1279_53832)">
<path d="M8.25 9C7.425 9 6.71875 8.70625 6.13125 8.11875C5.54375 7.53125 5.25 6.825 5.25 6C5.25 5.175 5.54375 4.46875 6.13125 3.88125C6.71875 3.29375 7.425 3 8.25 3C9.075 3 9.78125 3.29375 10.3687 3.88125C10.9562 4.46875 11.25 5.175 11.25 6C11.25 6.825 10.9562 7.53125 10.3687 8.11875C9.78125 8.70625 9.075 9 8.25 9ZM2.25 15V12.9C2.25 12.475 2.35937 12.0844 2.57812 11.7281C2.79688 11.3719 3.0875 11.1 3.45 10.9125C4.225 10.525 5.0125 10.2344 5.8125 10.0406C6.6125 9.84687 7.425 9.75 8.25 9.75C8.97206 9.75 9.68454 9.82421 10.3874 9.97262C10.4066 10.5915 10.9531 11.6487 12 12C12 12 12 12.6653 12 12.9V15H2.25Z" fill="white"/>
<path d="M14.9062 9.1875C14.9062 9.52604 14.7878 9.8138 14.5508 10.0508C14.3138 10.2878 14.026 10.4062 13.6875 10.4062C13.349 10.4062 13.0612 10.2878 12.8242 10.0508C12.5872 9.8138 12.4688 9.52604 12.4688 9.1875C12.4688 8.84896 12.5872 8.5612 12.8242 8.32422C13.0612 8.08724 13.349 7.96875 13.6875 7.96875C14.026 7.96875 14.3138 8.08724 14.5508 8.32422C14.7878 8.5612 14.9062 8.84896 14.9062 9.1875ZM16.125 9.1875C16.125 8.51042 15.888 7.9349 15.4141 7.46094C14.9401 6.98698 14.3646 6.75 13.6875 6.75C13.0104 6.75 12.4349 6.98698 11.9609 7.46094C11.487 7.9349 11.25 8.51042 11.25 9.1875C11.25 9.73594 11.4057 10.215 11.7172 10.6246C12.0286 11.0342 12.4146 11.3203 12.875 11.4828L12.875 14.8852L13.6773 15.6875L15.3023 14.2656L14.5 13.25L15.3125 12.4375L14.5 11.625L14.5 11.4828C14.9875 11.3135 15.3802 11.019 15.6781 10.5992C15.976 10.1794 16.125 9.70885 16.125 9.1875Z" fill="white"/>
</g>
</g>
<defs>
<clipPath id="clip0_1279_53832">
<rect width="18" height="18" fill="white"/>
</clipPath>
</defs>
</svg>
