<svg width="56" height="56" viewBox="0 0 56 56" fill="none" xmlns="http://www.w3.org/2000/svg">
<g filter="url(#filter0_dd_1146_58690)">
<circle cx="28" cy="26" r="20" fill="#212082"/>
<g filter="url(#filter1_b_1146_58690)">
<path fill-rule="evenodd" clip-rule="evenodd" d="M21.3333 22.2913C19.2852 22.2913 17.6248 23.9517 17.6248 25.9998C17.6248 28.048 19.2852 29.7084 21.3333 29.7084C23.3815 29.7084 25.0419 28.048 25.0419 25.9998C25.0419 23.9517 23.3815 22.2913 21.3333 22.2913ZM13 25.9998C13 21.3975 16.731 17.6665 21.3333 17.6665C25.9357 17.6665 29.6667 21.3975 29.6667 25.9998C29.6667 30.6022 25.9357 34.3332 21.3333 34.3332C16.731 34.3332 13 30.6022 13 25.9998Z" fill="url(#paint0_radial_1146_58690)"/>
</g>
<g filter="url(#filter2_b_1146_58690)">
<path fill-rule="evenodd" clip-rule="evenodd" d="M34.6666 22.2913C32.6184 22.2913 30.9581 23.9517 30.9581 25.9998C30.9581 28.048 32.6184 29.7084 34.6666 29.7084C36.7148 29.7084 38.3752 28.048 38.3752 25.9998C38.3752 23.9517 36.7148 22.2913 34.6666 22.2913ZM26.3333 25.9998C26.3333 21.3975 30.0642 17.6665 34.6666 17.6665C39.269 17.6665 43 21.3975 43 25.9998C43 30.6022 39.269 34.3332 34.6666 34.3332C30.0642 34.3332 26.3333 30.6022 26.3333 25.9998Z" fill="url(#paint1_linear_1146_58690)" fill-opacity="0.5"/>
</g>
</g>
<defs>
<filter id="filter0_dd_1146_58690" x="0" y="0" width="56" height="56" filterUnits="userSpaceOnUse" color-interpolation-filters="sRGB">
<feFlood flood-opacity="0" result="BackgroundImageFix"/>
<feColorMatrix in="SourceAlpha" type="matrix" values="0 0 0 0 0 0 0 0 0 0 0 0 0 0 0 0 0 0 127 0" result="hardAlpha"/>
<feOffset dy="2"/>
<feGaussianBlur stdDeviation="4"/>
<feComposite in2="hardAlpha" operator="out"/>
<feColorMatrix type="matrix" values="0 0 0 0 0 0 0 0 0 0 0 0 0 0 0 0 0 0 0.2 0"/>
<feBlend mode="normal" in2="BackgroundImageFix" result="effect1_dropShadow_1146_58690"/>
<feColorMatrix in="SourceAlpha" type="matrix" values="0 0 0 0 0 0 0 0 0 0 0 0 0 0 0 0 0 0 127 0" result="hardAlpha"/>
<feOffset dy="1"/>
<feGaussianBlur stdDeviation="1"/>
<feComposite in2="hardAlpha" operator="out"/>
<feColorMatrix type="matrix" values="0 0 0 0 0 0 0 0 0 0 0 0 0 0 0 0 0 0 0.05 0"/>
<feBlend mode="normal" in2="effect1_dropShadow_1146_58690" result="effect2_dropShadow_1146_58690"/>
<feBlend mode="normal" in="SourceGraphic" in2="effect2_dropShadow_1146_58690" result="shape"/>
</filter>
<filter id="filter1_b_1146_58690" x="-29" y="-24.3335" width="100.667" height="100.667" filterUnits="userSpaceOnUse" color-interpolation-filters="sRGB">
<feFlood flood-opacity="0" result="BackgroundImageFix"/>
<feGaussianBlur in="BackgroundImageFix" stdDeviation="21"/>
<feComposite in2="SourceAlpha" operator="in" result="effect1_backgroundBlur_1146_58690"/>
<feBlend mode="normal" in="SourceGraphic" in2="effect1_backgroundBlur_1146_58690" result="shape"/>
</filter>
<filter id="filter2_b_1146_58690" x="6.33328" y="-2.3335" width="56.6667" height="56.6665" filterUnits="userSpaceOnUse" color-interpolation-filters="sRGB">
<feFlood flood-opacity="0" result="BackgroundImageFix"/>
<feGaussianBlur in="BackgroundImageFix" stdDeviation="10"/>
<feComposite in2="SourceAlpha" operator="in" result="effect1_backgroundBlur_1146_58690"/>
<feBlend mode="normal" in="SourceGraphic" in2="effect1_backgroundBlur_1146_58690" result="shape"/>
</filter>
<radialGradient id="paint0_radial_1146_58690" cx="0" cy="0" r="1" gradientUnits="userSpaceOnUse" gradientTransform="translate(9.11693 17.9283) rotate(42.8481) scale(25.4701)">
<stop stop-color="white"/>
<stop offset="1" stop-color="white"/>
</radialGradient>
<linearGradient id="paint1_linear_1146_58690" x1="39.9895" y1="18.0155" x2="29.2129" y2="33.766" gradientUnits="userSpaceOnUse">
<stop stop-color="white"/>
<stop offset="1" stop-color="white"/>
</linearGradient>
</defs>
</svg>
