<svg width="48" height="48" viewBox="0 0 48 48" fill="none" xmlns="http://www.w3.org/2000/svg">
<circle cx="23.9995" cy="24" r="22" fill="#070A0E"/>
<path fill-rule="evenodd" clip-rule="evenodd" d="M14.1758 32.1938C13.4453 31.747 12.9985 30.9514 12.9985 30.0969V25.326C12.9985 25.1434 13.0475 24.9674 13.1388 24.8109C13.4225 24.3216 14.0518 24.1554 14.541 24.4423L25.309 30.7198C25.9383 31.0883 26.3264 31.7601 26.3264 32.4905V37.4343C26.3264 37.6593 26.2644 37.8843 26.147 38.0767C25.7916 38.6572 25.035 38.8398 24.4545 38.4843L14.1758 32.1938ZM30.2265 23.1346C30.8559 23.5031 31.244 24.175 31.244 24.9054V34.9363C31.244 35.2331 31.0842 35.507 30.8266 35.6505L28.4688 36.9778C28.4395 36.9941 28.4069 37.0071 28.3743 37.0169V31.447C28.3743 30.7263 27.996 30.0578 27.3764 29.6861L17.9194 24.0282V17.7409C17.9194 17.5583 17.9684 17.3822 18.0597 17.2257C18.3434 16.7365 18.9727 16.5702 19.4619 16.8572L30.2265 23.1346ZM34.9388 15.7256C35.5714 16.0908 35.9595 16.7691 35.9595 17.4996V32.1515C35.9595 32.4514 35.7931 32.7286 35.529 32.8721L33.2951 34.0787V23.8782C33.2951 23.1575 32.917 22.4922 32.3006 22.1204L22.6349 16.3224V10.3579C22.6349 10.1753 22.6838 9.99923 22.7718 9.8427C23.0556 9.35354 23.6849 9.18723 24.1741 9.47094L34.9388 15.7256Z" fill="#00D395"/>
<path d="M26.9972 34.5068L26.9973 34.5066C28.374 28.9819 33.9697 25.6197 39.4933 26.9969L39.4934 26.9969C45.0184 28.3742 48.3804 33.9701 47.003 39.4945C45.6256 45.0185 40.03 48.3805 34.5045 47.0029C28.9815 45.6257 25.6192 40.0304 26.9972 34.5068Z" fill="#F2A900" stroke="white" stroke-width="1.37638"/>
<path d="M41.8506 35.4335C42.0696 33.9698 40.955 33.183 39.431 32.6581L39.9254 30.6753L38.7183 30.3746L38.237 32.305C37.9197 32.226 37.5938 32.1514 37.27 32.0775L37.7547 30.1343L36.5483 29.8335L36.0536 31.8155C35.791 31.7557 35.5331 31.6966 35.2829 31.6344L35.2842 31.6282L33.6196 31.2126L33.2985 32.5017C33.2985 32.5017 34.1941 32.7069 34.1752 32.7196C34.6641 32.8416 34.7524 33.1651 34.7376 33.4215L34.1745 35.6803C34.2082 35.6889 34.2519 35.7013 34.3 35.7205C34.2598 35.7105 34.2168 35.6995 34.1724 35.6889L33.3831 38.8531C33.3233 39.0016 33.1717 39.2243 32.83 39.1397C32.842 39.1573 31.9526 38.9208 31.9526 38.9208L31.3534 40.3023L32.9242 40.6938C33.2164 40.767 33.5027 40.8437 33.7846 40.9159L33.2851 42.9213L34.4908 43.2221L34.9855 41.238C35.3148 41.3273 35.6346 41.4099 35.9474 41.4875L35.4544 43.4624L36.6615 43.7631L37.161 41.7615C39.2192 42.151 40.767 41.9939 41.4184 40.1325C41.9434 38.6338 41.3923 37.7692 40.3094 37.2055C41.098 37.0236 41.6921 36.5049 41.8506 35.4335ZM39.0927 39.3003C38.7197 40.799 36.196 39.9888 35.3778 39.7856L36.0406 37.1288C36.8588 37.333 39.4826 37.7373 39.0927 39.3003ZM39.4661 35.4118C39.1257 36.7751 37.0252 36.0825 36.3438 35.9127L36.9447 33.503C37.6261 33.6728 39.8205 33.9897 39.4661 35.4118Z" fill="white"/>
</svg>
