<svg width="20" height="20" viewBox="0 0 20 20" fill="none" xmlns="http://www.w3.org/2000/svg">
<g clip-path="url(#clip0_1575_6329)">
<mask id="mask0_1575_6329" style="mask-type:alpha" maskUnits="userSpaceOnUse" x="0" y="0" width="20" height="20">
<rect width="20" height="20" fill="#D9D9D9"/>
</mask>
<g mask="url(#mask0_1575_6329)">
<path d="M9.12498 10.5837L7.95831 9.41699C7.79165 9.25033 7.5972 9.16699 7.37498 9.16699C7.15276 9.16699 6.95831 9.25033 6.79165 9.41699C6.62498 9.58366 6.54165 9.78158 6.54165 10.0107C6.54165 10.2399 6.62498 10.4378 6.79165 10.6045L8.54165 12.3753C8.70831 12.542 8.90276 12.6253 9.12498 12.6253C9.3472 12.6253 9.54165 12.542 9.70831 12.3753L13.25 8.83366C13.4166 8.66699 13.5 8.46908 13.5 8.23991C13.5 8.01074 13.4166 7.81283 13.25 7.64616C13.0833 7.47949 12.8854 7.39616 12.6562 7.39616C12.4271 7.39616 12.2291 7.47949 12.0625 7.64616L9.12498 10.5837ZM9.99998 18.2503C9.90276 18.2503 9.81248 18.2434 9.72915 18.2295C9.64581 18.2156 9.56248 18.1948 9.47915 18.167C7.60415 17.542 6.11109 16.3857 4.99998 14.6982C3.88887 13.0107 3.33331 11.1948 3.33331 9.25033V5.31283C3.33331 4.9656 3.43401 4.6531 3.6354 4.37533C3.83679 4.09755 4.0972 3.89616 4.41665 3.77116L9.41665 1.89616C9.61109 1.82671 9.80553 1.79199 9.99998 1.79199C10.1944 1.79199 10.3889 1.82671 10.5833 1.89616L15.5833 3.77116C15.9028 3.89616 16.1632 4.09755 16.3646 4.37533C16.566 4.6531 16.6666 4.9656 16.6666 5.31283V9.25033C16.6666 11.1948 16.1111 13.0107 15 14.6982C13.8889 16.3857 12.3958 17.542 10.5208 18.167C10.4375 18.1948 10.3541 18.2156 10.2708 18.2295C10.1875 18.2434 10.0972 18.2503 9.99998 18.2503Z" fill="#00D395"/>
</g>
</g>
<defs>
<clipPath id="clip0_1575_6329">
<rect width="20" height="20" fill="white"/>
</clipPath>
</defs>
</svg>
