<svg width="328" height="328" viewBox="0 0 328 328" fill="none" xmlns="http://www.w3.org/2000/svg">
<g filter="url(#filter0_d_777_44636)">
<circle cx="164" cy="164" r="119.648" transform="rotate(30 164 164)" stroke="#201F82" stroke-width="0.816827" stroke-dasharray="155.2 40.84 40.84 40.84 40.84 40.84" shape-rendering="crispEdges"/>
</g>
<g filter="url(#filter1_d_777_44636)">
<circle cx="162.325" cy="164.484" r="89.5854" transform="rotate(45 162.325 164.484)" stroke="#FFA800" stroke-width="1.22524" stroke-dasharray="408.41 40.84" shape-rendering="crispEdges"/>
</g>
<g filter="url(#filter2_d_777_44636)">
<ellipse cx="161.992" cy="163.994" rx="27.1595" ry="27.3637" fill="#201F82"/>
</g>
<path fill-rule="evenodd" clip-rule="evenodd" d="M169.438 173.416C174.383 173.416 178.392 169.407 178.392 164.461C178.392 159.516 174.383 155.507 169.438 155.507C164.492 155.507 160.483 159.516 160.483 164.461C160.483 169.407 164.492 173.416 169.438 173.416ZM169.437 168.566C171.704 168.566 173.542 166.728 173.542 164.461C173.542 162.195 171.704 160.357 169.437 160.357C167.171 160.357 165.333 162.195 165.333 164.461C165.333 166.728 167.171 168.566 169.437 168.566Z" fill="white"/>
<path fill-rule="evenodd" clip-rule="evenodd" d="M169.438 173.416C174.383 173.416 178.392 169.407 178.392 164.461C178.392 159.516 174.383 155.507 169.438 155.507C164.492 155.507 160.483 159.516 160.483 164.461C160.483 169.407 164.492 173.416 169.438 173.416ZM169.437 168.566C171.704 168.566 173.542 166.728 173.542 164.461C173.542 162.195 171.704 160.357 169.437 160.357C167.171 160.357 165.333 162.195 165.333 164.461C165.333 166.728 167.171 168.566 169.437 168.566Z" fill="white"/>
<path fill-rule="evenodd" clip-rule="evenodd" d="M161.557 158.856C159.915 156.814 157.397 155.507 154.573 155.507C149.628 155.507 145.619 159.516 145.619 164.461C145.619 169.407 149.628 173.416 154.573 173.416C157.397 173.416 159.915 172.109 161.557 170.067C160.43 168.486 159.767 166.551 159.767 164.461C159.767 162.372 160.43 160.437 161.557 158.856ZM154.573 168.566C156.84 168.566 158.678 166.728 158.678 164.461C158.678 162.195 156.84 160.357 154.573 160.357C152.307 160.357 150.469 162.195 150.469 164.461C150.469 166.728 152.307 168.566 154.573 168.566Z" fill="white"/>
<g filter="url(#filter3_d_777_44636)">
<path d="M196.904 164.551C196.904 184.097 181.418 199.879 162.393 199.879C143.367 199.879 127.882 184.097 127.882 164.551C127.882 145.006 143.367 129.223 162.393 129.223C181.418 129.223 196.904 145.006 196.904 164.551Z" stroke="#FFA800" stroke-width="3.26731" shape-rendering="crispEdges"/>
</g>
<g filter="url(#filter4_d_777_44636)">
<ellipse cx="262.874" cy="81.6454" rx="27.1595" ry="27.3637" fill="#201F82"/>
</g>
<g filter="url(#filter5_d_777_44636)">
<path d="M297.385 81.8501C297.385 101.396 281.9 117.178 262.874 117.178C243.849 117.178 228.363 101.396 228.363 81.8501C228.363 62.3045 243.849 46.5223 262.874 46.5223C281.9 46.5223 297.385 62.3045 297.385 81.8501Z" stroke="#FFA800" stroke-width="3.26731" shape-rendering="crispEdges"/>
</g>
<g filter="url(#filter6_d_777_44636)">
<ellipse cx="64.2977" cy="114.363" rx="27.1595" ry="27.3637" fill="#201F82"/>
</g>
<ellipse cx="64.1095" cy="114.372" rx="27.3814" ry="27.3741" fill="#FFA800"/>
<ellipse cx="63.9166" cy="114.379" rx="25.6459" ry="26.2244" fill="#FFBC3A"/>
<path d="M85.5414 114.379C85.5414 126.892 75.8232 136.968 63.9168 136.968C52.0104 136.968 42.2922 126.892 42.2922 114.379C42.2922 101.867 52.0104 91.7907 63.9168 91.7907C75.8232 91.7907 85.5414 101.867 85.5414 114.379Z" fill="#FFBC3A" stroke="#FFA800" stroke-width="1.87232"/>
<path fill-rule="evenodd" clip-rule="evenodd" d="M66.3778 101.685C66.7236 101.534 66.9571 101.246 66.9571 100.916C66.9571 100.428 66.4479 100.033 65.8199 100.033C65.1918 100.033 64.6826 100.428 64.6826 100.916C64.6826 101.294 64.9885 101.616 65.4186 101.742V103.946V104.426H65.8982H67.595V106.517C67.2173 106.661 66.9572 106.962 66.9572 107.311C66.9572 107.799 67.4664 108.194 68.0944 108.194C68.7225 108.194 69.2317 107.799 69.2317 107.311C69.2317 106.95 68.9533 106.64 68.5543 106.503V103.946V103.466H68.0746H66.3778V101.685Z" fill="#ED9C00"/>
<path fill-rule="evenodd" clip-rule="evenodd" d="M47.3069 119.075C47.6527 118.923 47.8862 118.635 47.8862 118.305C47.8862 117.817 47.377 117.422 46.7489 117.422C46.1209 117.422 45.6117 117.817 45.6117 118.305C45.6117 118.683 45.9176 119.005 46.3477 119.131V121.335V121.814H46.8273H48.5241V123.905C48.1462 124.048 47.8859 124.35 47.8859 124.698C47.8859 125.186 48.395 125.581 49.0231 125.581C49.6512 125.581 50.1604 125.186 50.1604 124.698C50.1604 124.338 49.8822 124.028 49.4834 123.891V121.335V120.855H49.0038H47.3069V119.075Z" fill="#ED9C00"/>
<path fill-rule="evenodd" clip-rule="evenodd" d="M81.119 117.995C81.4381 118.135 81.6536 118.401 81.6536 118.705C81.6536 119.156 81.1836 119.521 80.6038 119.521C80.0241 119.521 79.5541 119.156 79.5541 118.705C79.5541 118.356 79.8365 118.059 80.2336 117.942L80.2336 115.909L80.2336 115.467L80.6763 115.467L82.2426 115.467L82.2426 113.536C81.8938 113.403 81.6536 113.125 81.6536 112.803C81.6536 112.353 82.1236 111.988 82.7034 111.988C83.2831 111.988 83.7531 112.353 83.7531 112.803C83.7531 113.136 83.4963 113.422 83.1281 113.549L83.1281 115.909L83.1281 116.352L82.6854 116.352L81.119 116.352L81.119 117.995Z" fill="#ED9C00"/>
<path fill-rule="evenodd" clip-rule="evenodd" d="M51.7114 116.945C51.3301 117.024 51.0119 117.254 50.9025 117.571C50.74 118.042 51.1 118.526 51.7067 118.652C52.3134 118.779 52.937 118.499 53.0995 118.028C53.2249 117.665 53.0394 117.294 52.6698 117.085L53.4047 114.955L53.5612 114.502L53.0916 114.404L51.4589 114.064L52.16 112.033C52.5699 111.968 52.9185 111.73 53.0341 111.395C53.1966 110.924 52.8366 110.44 52.2299 110.314C51.6232 110.187 50.9997 110.467 50.8371 110.938C50.7176 111.284 50.8805 111.638 51.2162 111.851L50.3633 114.322L50.2069 114.776L50.6764 114.873L52.3092 115.213L51.7114 116.945Z" fill="#ED9C00"/>
<path fill-rule="evenodd" clip-rule="evenodd" d="M77.7803 126.456C77.3991 126.534 77.0811 126.765 76.9717 127.082C76.8092 127.553 77.1692 128.037 77.7759 128.163C78.3826 128.289 79.0062 128.01 79.1687 127.539C79.2941 127.175 79.1086 126.804 78.7388 126.595L79.474 124.465L79.6305 124.011L79.1609 123.914L77.5282 123.574L78.229 121.543C78.6388 121.479 78.9874 121.241 79.103 120.906C79.2655 120.435 78.9055 119.951 78.2988 119.824C77.6921 119.698 77.0686 119.978 76.906 120.449C76.7865 120.795 76.9494 121.149 77.2851 121.362L76.4326 123.832L76.2762 124.285L76.7457 124.383L78.3785 124.723L77.7803 126.456Z" fill="#ED9C00"/>
<path fill-rule="evenodd" clip-rule="evenodd" d="M58.8845 133.25C58.5033 133.328 58.1852 133.558 58.0759 133.875C57.9133 134.346 58.2733 134.83 58.88 134.957C59.4867 135.083 60.1103 134.803 60.2729 134.332C60.3982 133.969 60.2127 133.598 59.8429 133.389L60.5781 131.258L60.7346 130.805L60.265 130.707L58.6323 130.368L59.3334 128.336C59.7433 128.271 60.0918 128.033 60.2074 127.698C60.3699 127.227 60.0099 126.743 59.4032 126.617C58.7965 126.491 58.1729 126.77 58.0104 127.241C57.8909 127.588 58.0538 127.941 58.3896 128.154L57.5367 130.626L57.3803 131.079L57.8498 131.177L59.4826 131.516L58.8845 133.25Z" fill="#ED9C00"/>
<path fill-rule="evenodd" clip-rule="evenodd" d="M69.7719 100.351C69.4204 100.494 69.1757 100.777 69.1627 101.107C69.1434 101.594 69.6366 102.001 70.2644 102.016C70.8922 102.031 71.4168 101.648 71.4361 101.161C71.4511 100.783 71.158 100.453 70.7331 100.317L70.8203 98.1145L70.8393 97.6353L70.3598 97.6238L68.6639 97.5833L68.7467 95.4928C69.1301 95.3583 69.4022 95.0632 69.416 94.7147C69.4353 94.2272 68.9421 93.8199 68.3143 93.8049C67.6865 93.7899 67.1619 94.1729 67.1426 94.6604C67.1283 95.0207 67.3941 95.3372 67.7872 95.4839L67.6859 98.0397L67.667 98.5189L68.1464 98.5303L69.8424 98.5708L69.7719 100.351Z" fill="#ED9C00"/>
<path fill-rule="evenodd" clip-rule="evenodd" d="M49.0015 106.794C49.1319 106.893 49.1626 106.989 49.1626 107.049C49.1626 107.11 49.1319 107.205 49.0015 107.305C48.8707 107.405 48.6645 107.483 48.4128 107.483C48.1612 107.483 47.9549 107.405 47.8241 107.305C47.6938 107.205 47.6631 107.11 47.6631 107.049C47.6631 106.989 47.6938 106.893 47.8241 106.794C47.9549 106.694 48.1612 106.616 48.4128 106.616C48.6645 106.616 48.8707 106.694 49.0015 106.794ZM49.7067 105.869C49.3558 105.601 48.8964 105.453 48.4128 105.453C47.9293 105.453 47.4699 105.601 47.1189 105.869C46.7674 106.137 46.5001 106.549 46.5001 107.049C46.5001 107.55 46.7674 107.961 47.1189 108.23C47.3248 108.387 47.568 108.503 47.8315 108.572V110.066L46.1577 109.21L45.3117 108.778V109.728V113.994C44.8686 114.156 44.562 114.506 44.562 114.912C44.562 115.473 45.1474 115.927 45.8695 115.927C46.5916 115.927 47.1769 115.473 47.1769 114.912C47.1769 114.521 46.892 114.182 46.4746 114.012V110.678L48.1484 111.534L48.9944 111.966V111.016V108.572C49.2578 108.503 49.5009 108.386 49.7067 108.23C50.0582 107.961 50.3255 107.55 50.3255 107.049C50.3255 106.549 50.0582 106.137 49.7067 105.869Z" fill="#ED9C00"/>
<path fill-rule="evenodd" clip-rule="evenodd" d="M69.9969 117.934C70.1273 118.033 70.158 118.129 70.158 118.189C70.158 118.25 70.1273 118.346 69.9969 118.445C69.8661 118.545 69.6599 118.623 69.4082 118.623C69.1565 118.623 68.9503 118.545 68.8195 118.445C68.6892 118.346 68.6585 118.25 68.6585 118.189C68.6585 118.129 68.6892 118.033 68.8195 117.934C68.9503 117.834 69.1565 117.756 69.4082 117.756C69.6599 117.756 69.8661 117.834 69.9969 117.934ZM70.7021 117.009C70.3512 116.742 69.8918 116.593 69.4082 116.593C68.9247 116.593 68.4653 116.742 68.1143 117.009C67.7628 117.277 67.4955 117.689 67.4955 118.189C67.4955 118.69 67.7628 119.102 68.1143 119.37C68.3202 119.527 68.5634 119.643 68.8269 119.712V121.206L67.1531 120.351L66.3071 119.918V120.868V125.134C65.8638 125.297 65.5571 125.647 65.5571 126.053C65.5571 126.614 66.1425 127.068 66.8646 127.068C67.5867 127.068 68.172 126.614 68.172 126.053C68.172 125.662 67.8873 125.322 67.47 125.153V121.819L69.1438 122.674L69.9898 123.106V122.156V119.712C70.2532 119.643 70.4963 119.527 70.7021 119.37C71.0536 119.102 71.3209 118.69 71.3209 118.189C71.3209 117.689 71.0536 117.277 70.7021 117.009Z" fill="#ED9C00"/>
<path fill-rule="evenodd" clip-rule="evenodd" d="M73.6711 124.727C73.8015 124.827 73.8322 124.922 73.8322 124.983C73.8322 125.043 73.8015 125.139 73.6711 125.238C73.5403 125.338 73.3341 125.417 73.0824 125.417C72.8307 125.417 72.6245 125.338 72.4937 125.238C72.3633 125.139 72.3326 125.043 72.3326 124.983C72.3326 124.922 72.3633 124.827 72.4937 124.727C72.6245 124.628 72.8307 124.549 73.0824 124.549C73.3341 124.549 73.5403 124.628 73.6711 124.727ZM74.3763 123.803C74.0253 123.535 73.5659 123.386 73.0824 123.386C72.5989 123.386 72.1395 123.535 71.7885 123.803C71.437 124.071 71.1697 124.483 71.1697 124.983C71.1697 125.483 71.437 125.895 71.7885 126.163C71.9943 126.32 72.2375 126.436 72.5009 126.505V127.999L70.8272 127.144L69.9811 126.712V127.662V131.927C69.538 132.09 69.2314 132.44 69.2314 132.846C69.2314 133.406 69.8168 133.861 70.5389 133.861C71.261 133.861 71.8464 133.406 71.8464 132.846C71.8464 132.455 71.5615 132.115 71.144 131.946V128.612L72.8178 129.467L73.6639 129.9V128.949V126.505C73.9273 126.436 74.1705 126.32 74.3763 126.163C74.7278 125.895 74.9951 125.483 74.9951 124.983C74.9951 124.483 74.7278 124.071 74.3763 123.803Z" fill="#ED9C00"/>
<path fill-rule="evenodd" clip-rule="evenodd" d="M76.1207 99.3226C76.251 99.422 76.2817 99.5177 76.2817 99.5781C76.2817 99.6385 76.251 99.7342 76.1207 99.8336C75.9899 99.9334 75.7837 100.012 75.532 100.012C75.2803 100.012 75.0741 99.9334 74.9433 99.8336C74.8129 99.7342 74.7822 99.6385 74.7822 99.5781C74.7822 99.5177 74.8129 99.422 74.9433 99.3226C75.0741 99.2228 75.2803 99.1444 75.532 99.1444C75.7837 99.1444 75.9899 99.2228 76.1207 99.3226ZM76.8259 98.3979C76.4749 98.1302 76.0155 97.9814 75.532 97.9814C75.0484 97.9814 74.589 98.1302 74.2381 98.3979C73.8866 98.6659 73.6193 99.0779 73.6193 99.5781C73.6193 100.078 73.8866 100.49 74.2381 100.758C74.444 100.915 74.6871 101.031 74.9506 101.101V102.595L73.2769 101.74L72.4308 101.307V102.258V106.523C71.9877 106.685 71.681 107.035 71.681 107.441C71.681 108.002 72.2664 108.456 72.9885 108.456C73.7106 108.456 74.2959 108.002 74.2959 107.441C74.2959 107.05 74.0111 106.711 73.5938 106.541V103.208L75.2675 104.063L76.1136 104.495V103.545V101.101C76.377 101.031 76.6201 100.915 76.8259 100.758C77.1774 100.49 77.4447 100.078 77.4447 99.5781C77.4447 99.0779 77.1774 98.6659 76.8259 98.3979Z" fill="#ED9C00"/>
<path fill-rule="evenodd" clip-rule="evenodd" d="M58.7998 94.975C58.9301 95.0744 58.9608 95.17 58.9608 95.2305C58.9608 95.2909 58.9301 95.3865 58.7998 95.4859C58.669 95.5857 58.4627 95.6642 58.2111 95.6642C57.9594 95.6642 57.7532 95.5857 57.6224 95.4859C57.492 95.3865 57.4613 95.2909 57.4613 95.2305C57.4613 95.17 57.492 95.0744 57.6224 94.975C57.7532 94.8752 57.9594 94.7967 58.2111 94.7967C58.4627 94.7967 58.669 94.8752 58.7998 94.975ZM59.505 94.0502C59.154 93.7826 58.6946 93.6338 58.2111 93.6338C57.7275 93.6338 57.2681 93.7826 56.9172 94.0502C56.5657 94.3183 56.2984 94.7302 56.2984 95.2305C56.2984 95.7307 56.5657 96.1426 56.9172 96.4107C57.123 96.5677 57.3662 96.6838 57.6297 96.7529V98.2475L55.956 97.3922L55.1099 96.9598V97.91V102.175C54.6667 102.337 54.36 102.688 54.36 103.093C54.36 103.654 54.9454 104.109 55.6674 104.109C56.3895 104.109 56.9749 103.654 56.9749 103.093C56.9749 102.702 56.6901 102.363 56.2729 102.193V98.8601L57.9466 99.7154L58.7927 100.148V99.1976V96.7529C59.0561 96.6837 59.2992 96.5676 59.505 96.4107C59.8565 96.1426 60.1238 95.7307 60.1238 95.2305C60.1238 94.7302 59.8565 94.3183 59.505 94.0502Z" fill="#ED9C00"/>
<path fill-rule="evenodd" clip-rule="evenodd" d="M58.2371 116.396C58.1119 116.492 58.0825 116.584 58.0825 116.642C58.0825 116.7 58.1119 116.792 58.2371 116.887C58.3627 116.983 58.5607 117.058 58.8023 117.058C59.0439 117.058 59.2419 116.983 59.3675 116.887C59.4926 116.792 59.5221 116.7 59.5221 116.642C59.5221 116.584 59.4926 116.492 59.3675 116.396C59.2419 116.301 59.0439 116.225 58.8023 116.225C58.5607 116.225 58.3627 116.301 58.2371 116.396ZM57.5601 115.509C57.897 115.252 58.3381 115.109 58.8023 115.109C59.2665 115.109 59.7075 115.252 60.0445 115.509C60.3819 115.766 60.6385 116.161 60.6385 116.642C60.6385 117.122 60.3819 117.517 60.0445 117.775C59.8469 117.925 59.6135 118.037 59.3606 118.103V119.538L60.9675 118.717L61.7797 118.302V119.214V123.309C62.2052 123.465 62.4995 123.801 62.4995 124.19C62.4995 124.729 61.9375 125.165 61.2443 125.165C60.5511 125.165 59.9891 124.729 59.9891 124.19C59.9891 123.815 60.2626 123.489 60.6633 123.326V120.126L59.0564 120.947L58.2441 121.362V120.45V118.103C57.9912 118.037 57.7577 117.926 57.5601 117.775C57.2226 117.517 56.966 117.122 56.966 116.642C56.966 116.161 57.2226 115.766 57.5601 115.509Z" fill="#ED9C00"/>
<path fill-rule="evenodd" clip-rule="evenodd" d="M72.2338 110.962C72.1087 111.057 72.0792 111.149 72.0792 111.207C72.0792 111.265 72.1087 111.357 72.2338 111.452C72.3594 111.548 72.5574 111.624 72.799 111.624C73.0406 111.624 73.2386 111.548 73.3642 111.452C73.4893 111.357 73.5188 111.265 73.5188 111.207C73.5188 111.149 73.4893 111.057 73.3642 110.962C73.2386 110.866 73.0406 110.791 72.799 110.791C72.5574 110.791 72.3594 110.866 72.2338 110.962ZM71.5568 110.074C71.8937 109.817 72.3348 109.674 72.799 109.674C73.2632 109.674 73.7042 109.817 74.0412 110.074C74.3786 110.331 74.6352 110.727 74.6352 111.207C74.6352 111.687 74.3786 112.083 74.0412 112.34C73.8436 112.491 73.6101 112.602 73.3572 112.669V114.104L74.9641 113.283L75.7763 112.868V113.78V117.874C76.2017 118.03 76.4961 118.366 76.4961 118.756C76.4961 119.294 75.9341 119.73 75.2409 119.73C74.5477 119.73 73.9857 119.294 73.9857 118.756C73.9857 118.38 74.2591 118.054 74.6598 117.892V114.692L73.053 115.513L72.2407 115.928V115.016V112.669C71.9878 112.602 71.7544 112.491 71.5568 112.34C71.2194 112.083 70.9627 111.687 70.9627 111.207C70.9627 110.727 71.2194 110.331 71.5568 110.074Z" fill="#ED9C00"/>
<path fill-rule="evenodd" clip-rule="evenodd" d="M61.5171 105.966C62.0454 105.857 62.3396 106.124 62.3824 106.248C62.4253 106.373 62.3428 106.718 61.8145 106.828C61.2863 106.938 60.9921 106.671 60.9492 106.547C60.9064 106.422 60.9888 106.076 61.5171 105.966ZM63.521 106.011C63.1901 105.053 62.0298 104.682 61.1378 104.867C60.2457 105.053 59.4798 105.824 59.8107 106.783C60.0712 107.538 60.8455 107.929 61.5984 107.97L62.1039 109.435L60.2236 108.951L59.2407 108.698L59.5557 109.61L60.9785 113.733C60.6091 113.98 60.4325 114.377 60.567 114.767C60.7539 115.308 61.4708 115.63 62.1683 115.485C62.8658 115.339 63.2797 114.783 63.0928 114.241C62.9633 113.866 62.5791 113.596 62.1233 113.514L61.0092 110.286L62.8895 110.77L63.8724 111.024L63.5574 110.111L62.737 107.733C63.3623 107.405 63.7815 106.766 63.521 106.011Z" fill="#ED9C00"/>
<rect x="244.7" y="73.0376" width="36.2002" height="22.7811" rx="8.16826" fill="#8FD0EE"/>
<circle cx="262.8" cy="73.1929" r="7.68029" stroke="#8FD0EE" stroke-width="3.67572"/>
<path d="M262.977 91.4805C262.75 91.4805 262.564 91.4068 262.419 91.2594C262.275 91.1218 262.202 90.9499 262.202 90.7435V89.7411C261.572 89.7017 261.009 89.6084 260.514 89.461C260.028 89.3037 259.61 89.1317 259.259 88.945C259.022 88.8173 258.872 88.6453 258.81 88.4291C258.758 88.2129 258.774 88.0065 258.856 87.8099C258.939 87.6134 259.078 87.4758 259.275 87.3972C259.471 87.3185 259.703 87.3529 259.972 87.5004C260.261 87.6576 260.638 87.8099 261.102 87.9573C261.577 88.0949 262.145 88.1637 262.806 88.1637C263.581 88.1637 264.139 88.036 264.479 87.7804C264.82 87.5151 264.991 87.1859 264.991 86.7928C264.991 86.4685 264.872 86.2031 264.634 85.9967C264.397 85.7903 263.973 85.6233 263.364 85.4955L261.722 85.1565C259.853 84.7732 258.918 83.8396 258.918 82.3556C258.918 81.5301 259.213 80.8372 259.801 80.277C260.4 79.707 261.201 79.3631 262.202 79.2451V78.1985C262.202 77.9921 262.275 77.8201 262.419 77.6825C262.564 77.5351 262.75 77.4614 262.977 77.4614C263.194 77.4614 263.374 77.5351 263.519 77.6825C263.674 77.8201 263.751 77.9921 263.751 78.1985V79.2304C264.164 79.2697 264.598 79.3631 265.053 79.5105C265.517 79.6579 265.92 79.8594 266.261 80.1149C266.457 80.2623 266.571 80.4343 266.602 80.6308C266.633 80.8176 266.596 80.9945 266.493 81.1615C266.4 81.3188 266.25 81.4269 266.044 81.4858C265.848 81.535 265.615 81.4858 265.347 81.3384C265.047 81.1714 264.712 81.0387 264.34 80.9404C263.968 80.8323 263.524 80.7783 263.008 80.7783C262.347 80.7783 261.825 80.9208 261.443 81.2058C261.071 81.4809 260.886 81.8446 260.886 82.2966C260.886 82.6308 260.999 82.901 261.226 83.1074C261.454 83.304 261.841 83.4612 262.388 83.5791L264.077 83.9329C265.068 84.1393 265.796 84.4685 266.261 84.9206C266.725 85.3628 266.958 85.9476 266.958 86.6748C266.958 87.5004 266.658 88.1785 266.059 88.7092C265.471 89.23 264.701 89.5592 263.751 89.6968V90.7435C263.751 90.9499 263.679 91.1218 263.534 91.2594C263.39 91.4068 263.204 91.4805 262.977 91.4805Z" fill="white"/>
<g filter="url(#filter7_d_777_44636)">
<path d="M98.8086 114.565C98.8086 134.111 83.3233 149.893 64.2977 149.893C45.272 149.893 29.7867 134.111 29.7867 114.565C29.7867 95.0198 45.272 79.2377 64.2977 79.2377C83.3233 79.2377 98.8086 95.0198 98.8086 114.565Z" stroke="#8FD0EE" stroke-width="3.26731" shape-rendering="crispEdges"/>
</g>
<path d="M204.779 231.434L204.779 231.433L204.779 220.78C204.779 216.685 201.443 213.38 197.347 213.38C195.802 213.38 194.366 213.851 193.175 214.656C192.987 210.728 189.728 207.615 185.752 207.615C184.211 207.615 182.777 208.083 181.588 208.885V208.096C181.588 204 178.252 200.696 174.157 200.696C172.615 200.696 171.182 201.164 169.993 201.966V187.34C169.993 183.245 166.657 179.941 162.562 179.941C158.466 179.941 155.13 183.245 155.13 187.34V227.989L142.121 220.784C137.609 218.285 131.909 219.894 129.39 224.391C127.855 227.132 129.03 230.187 131.403 231.775L131.41 231.78L131.417 231.784L132.789 232.683L132.846 232.72L132.905 232.752L134.824 233.793L134.826 233.795C134.844 233.805 134.872 233.822 134.912 233.846C134.991 233.894 135.114 233.97 135.28 234.076C135.611 234.288 136.114 234.619 136.781 235.085C138.114 236.017 140.101 237.488 142.676 239.622C145.211 241.723 146.409 243.426 148.167 245.938C149.813 248.288 151.884 251.246 155.844 255.606C158.111 258.102 161.453 260.04 165.176 261.426C168.918 262.819 173.158 263.694 177.338 263.993C181.513 264.291 185.695 264.017 189.309 263.06C192.899 262.109 196.105 260.435 198.077 257.791C201.662 252.986 203.303 246.308 204.074 241.014C204.463 238.336 204.64 235.948 204.718 234.228C204.758 233.367 204.773 232.671 204.778 232.187C204.781 231.945 204.781 231.756 204.781 231.626C204.78 231.561 204.78 231.51 204.779 231.475L204.779 231.434Z" fill="white" stroke="#8FD0EE" stroke-width="3.26731"/>
<path d="M72.6274 272.68C70.7102 272.68 69.1559 274.234 69.1559 276.151V280.031H65.276C63.3587 280.031 61.8044 281.585 61.8044 283.503C61.8044 285.42 63.3587 286.974 65.276 286.974H69.1559V290.854C69.1559 292.771 70.7102 294.326 72.6274 294.326C74.5446 294.326 76.0989 292.771 76.0989 290.854V286.974H79.9788C81.8961 286.974 83.4503 285.42 83.4503 283.503C83.4503 281.585 81.8961 280.031 79.9788 280.031H76.0989V276.151C76.0989 274.234 74.5446 272.68 72.6274 272.68Z" fill="#8FD0EE"/>
<path d="M61.6002 299.227C60.6958 299.227 59.9627 299.96 59.9627 300.865V302.695H58.1325C57.2281 302.695 56.495 303.428 56.495 304.332C56.495 305.237 57.2281 305.97 58.1325 305.97H59.9627V307.8C59.9627 308.704 60.6958 309.437 61.6002 309.437C62.5045 309.437 63.2377 308.704 63.2377 307.8V305.97H65.0678C65.9722 305.97 66.7053 305.237 66.7053 304.332C66.7053 303.428 65.9722 302.695 65.0678 302.695H63.2377V300.865C63.2377 299.96 62.5045 299.227 61.6002 299.227Z" fill="#8FD0EE"/>
<path d="M47.7141 257.161C46.8097 257.161 46.0765 257.894 46.0765 258.798V260.628H44.2464C43.342 260.628 42.6089 261.361 42.6089 262.266C42.6089 263.17 43.342 263.903 44.2464 263.903H46.0765V265.733C46.0765 266.638 46.8097 267.371 47.7141 267.371C48.6184 267.371 49.3516 266.638 49.3516 265.733V263.903H51.1817C52.0861 263.903 52.8192 263.17 52.8192 262.266C52.8192 261.361 52.0861 260.628 51.1817 260.628H49.3516V258.798C49.3516 257.894 48.6184 257.161 47.7141 257.161Z" fill="#8FD0EE"/>
<path d="M130.645 99.6694C129.74 99.6694 129.007 100.403 129.007 101.307V103.137H127.177C126.273 103.137 125.539 103.87 125.539 104.775C125.539 105.679 126.273 106.412 127.177 106.412H129.007V108.242C129.007 109.147 129.74 109.88 130.645 109.88C131.549 109.88 132.282 109.147 132.282 108.242V106.412H134.112C135.017 106.412 135.75 105.679 135.75 104.775C135.75 103.87 135.017 103.137 134.112 103.137H132.282V101.307C132.282 100.403 131.549 99.6694 130.645 99.6694Z" fill="#8FD0EE"/>
<path d="M41.2586 22.8252C39.3414 22.8252 37.7871 24.3794 37.7871 26.2967V30.1766H33.9072C31.99 30.1766 30.4357 31.7309 30.4357 33.6481C30.4357 35.5654 31.99 37.1197 33.9072 37.1197H37.7871V40.9996C37.7871 42.9169 39.3414 44.4711 41.2586 44.4711C43.1759 44.4711 44.7301 42.9169 44.7301 40.9996V37.1197H48.6101C50.5273 37.1197 52.0816 35.5654 52.0816 33.6481C52.0816 31.7309 50.5273 30.1766 48.6101 30.1766H44.7301V26.2967C44.7301 24.3794 43.1759 22.8252 41.2586 22.8252Z" fill="#8FD0EE"/>
<rect x="272.38" y="33.5718" width="6.94303" height="21.6459" rx="3.47151" transform="rotate(-90 272.38 33.5718)" fill="#8FD0EE"/>
<path d="M256.037 213.934C251.212 225.033 246.141 227.964 234.588 229.696C228.436 267.401 256.012 287.309 272.481 293.554C272.481 293.561 272.481 293.568 272.481 293.575C272.49 293.571 272.499 293.568 272.508 293.564C272.517 293.568 272.526 293.571 272.535 293.575C272.535 293.568 272.535 293.561 272.535 293.554C289.005 287.309 316.581 267.401 310.428 229.696C298.876 227.964 293.805 225.033 288.98 213.934H256.037Z" fill="#201F82"/>
<path d="M252.204 268.12C246.153 260.479 242.098 250.069 243.973 236.414C248.004 235.726 251.272 234.74 254.011 232.835C256.831 230.872 258.894 228.075 260.761 224.144H284.665C286.532 228.075 288.594 230.872 291.415 232.835C294.153 234.74 297.422 235.726 301.453 236.414C303.327 250.069 299.272 260.479 293.222 268.12C287.138 275.804 278.993 280.732 272.713 283.21C266.433 280.732 258.288 275.804 252.204 268.12Z" stroke="#A9E4FF" stroke-width="4.08413"/>
<defs>
<filter id="filter0_d_777_44636" x="35.7552" y="35.7556" width="256.489" height="256.489" filterUnits="userSpaceOnUse" color-interpolation-filters="sRGB">
<feFlood flood-opacity="0" result="BackgroundImageFix"/>
<feColorMatrix in="SourceAlpha" type="matrix" values="0 0 0 0 0 0 0 0 0 0 0 0 0 0 0 0 0 0 127 0" result="hardAlpha"/>
<feOffset/>
<feGaussianBlur stdDeviation="4.08413"/>
<feComposite in2="hardAlpha" operator="out"/>
<feColorMatrix type="matrix" values="0 0 0 0 0.12549 0 0 0 0 0.121569 0 0 0 0 0.509804 0 0 0 1 0"/>
<feBlend mode="normal" in2="BackgroundImageFix" result="effect1_dropShadow_777_44636"/>
<feBlend mode="normal" in="SourceGraphic" in2="effect1_dropShadow_777_44636" result="shape"/>
</filter>
<filter id="filter1_d_777_44636" x="63.9591" y="66.1174" width="196.733" height="196.733" filterUnits="userSpaceOnUse" color-interpolation-filters="sRGB">
<feFlood flood-opacity="0" result="BackgroundImageFix"/>
<feColorMatrix in="SourceAlpha" type="matrix" values="0 0 0 0 0 0 0 0 0 0 0 0 0 0 0 0 0 0 127 0" result="hardAlpha"/>
<feOffset/>
<feGaussianBlur stdDeviation="4.08413"/>
<feComposite in2="hardAlpha" operator="out"/>
<feColorMatrix type="matrix" values="0 0 0 0 0.12549 0 0 0 0 0.121569 0 0 0 0 0.509804 0 0 0 1 0"/>
<feBlend mode="normal" in2="BackgroundImageFix" result="effect1_dropShadow_777_44636"/>
<feBlend mode="normal" in="SourceGraphic" in2="effect1_dropShadow_777_44636" result="shape"/>
</filter>
<filter id="filter2_d_777_44636" x="123.943" y="125.741" width="76.097" height="76.5055" filterUnits="userSpaceOnUse" color-interpolation-filters="sRGB">
<feFlood flood-opacity="0" result="BackgroundImageFix"/>
<feColorMatrix in="SourceAlpha" type="matrix" values="0 0 0 0 0 0 0 0 0 0 0 0 0 0 0 0 0 0 127 0" result="hardAlpha"/>
<feOffset/>
<feGaussianBlur stdDeviation="5.4445"/>
<feComposite in2="hardAlpha" operator="out"/>
<feColorMatrix type="matrix" values="0 0 0 0 0.12549 0 0 0 0 0.121569 0 0 0 0 0.509804 0 0 0 1 0"/>
<feBlend mode="normal" in2="BackgroundImageFix" result="effect1_dropShadow_777_44636"/>
<feBlend mode="normal" in="SourceGraphic" in2="effect1_dropShadow_777_44636" result="shape"/>
</filter>
<filter id="filter3_d_777_44636" x="115.359" y="116.701" width="94.0672" height="95.7009" filterUnits="userSpaceOnUse" color-interpolation-filters="sRGB">
<feFlood flood-opacity="0" result="BackgroundImageFix"/>
<feColorMatrix in="SourceAlpha" type="matrix" values="0 0 0 0 0 0 0 0 0 0 0 0 0 0 0 0 0 0 127 0" result="hardAlpha"/>
<feOffset/>
<feGaussianBlur stdDeviation="5.4445"/>
<feComposite in2="hardAlpha" operator="out"/>
<feColorMatrix type="matrix" values="0 0 0 0 0.12549 0 0 0 0 0.121569 0 0 0 0 0.509804 0 0 0 1 0"/>
<feBlend mode="normal" in2="BackgroundImageFix" result="effect1_dropShadow_777_44636"/>
<feBlend mode="normal" in="SourceGraphic" in2="effect1_dropShadow_777_44636" result="shape"/>
</filter>
<filter id="filter4_d_777_44636" x="224.826" y="43.3927" width="76.097" height="76.5055" filterUnits="userSpaceOnUse" color-interpolation-filters="sRGB">
<feFlood flood-opacity="0" result="BackgroundImageFix"/>
<feColorMatrix in="SourceAlpha" type="matrix" values="0 0 0 0 0 0 0 0 0 0 0 0 0 0 0 0 0 0 127 0" result="hardAlpha"/>
<feOffset/>
<feGaussianBlur stdDeviation="5.4445"/>
<feComposite in2="hardAlpha" operator="out"/>
<feColorMatrix type="matrix" values="0 0 0 0 0.12549 0 0 0 0 0.121569 0 0 0 0 0.509804 0 0 0 1 0"/>
<feBlend mode="normal" in2="BackgroundImageFix" result="effect1_dropShadow_777_44636"/>
<feBlend mode="normal" in="SourceGraphic" in2="effect1_dropShadow_777_44636" result="shape"/>
</filter>
<filter id="filter5_d_777_44636" x="215.841" y="33.9997" width="94.0672" height="95.7009" filterUnits="userSpaceOnUse" color-interpolation-filters="sRGB">
<feFlood flood-opacity="0" result="BackgroundImageFix"/>
<feColorMatrix in="SourceAlpha" type="matrix" values="0 0 0 0 0 0 0 0 0 0 0 0 0 0 0 0 0 0 127 0" result="hardAlpha"/>
<feOffset/>
<feGaussianBlur stdDeviation="5.4445"/>
<feComposite in2="hardAlpha" operator="out"/>
<feColorMatrix type="matrix" values="0 0 0 0 0.12549 0 0 0 0 0.121569 0 0 0 0 0.509804 0 0 0 1 0"/>
<feBlend mode="normal" in2="BackgroundImageFix" result="effect1_dropShadow_777_44636"/>
<feBlend mode="normal" in="SourceGraphic" in2="effect1_dropShadow_777_44636" result="shape"/>
</filter>
<filter id="filter6_d_777_44636" x="26.2492" y="76.11" width="76.097" height="76.5055" filterUnits="userSpaceOnUse" color-interpolation-filters="sRGB">
<feFlood flood-opacity="0" result="BackgroundImageFix"/>
<feColorMatrix in="SourceAlpha" type="matrix" values="0 0 0 0 0 0 0 0 0 0 0 0 0 0 0 0 0 0 127 0" result="hardAlpha"/>
<feOffset/>
<feGaussianBlur stdDeviation="5.4445"/>
<feComposite in2="hardAlpha" operator="out"/>
<feColorMatrix type="matrix" values="0 0 0 0 0.12549 0 0 0 0 0.121569 0 0 0 0 0.509804 0 0 0 1 0"/>
<feBlend mode="normal" in2="BackgroundImageFix" result="effect1_dropShadow_777_44636"/>
<feBlend mode="normal" in="SourceGraphic" in2="effect1_dropShadow_777_44636" result="shape"/>
</filter>
<filter id="filter7_d_777_44636" x="17.2641" y="66.715" width="94.0672" height="95.7009" filterUnits="userSpaceOnUse" color-interpolation-filters="sRGB">
<feFlood flood-opacity="0" result="BackgroundImageFix"/>
<feColorMatrix in="SourceAlpha" type="matrix" values="0 0 0 0 0 0 0 0 0 0 0 0 0 0 0 0 0 0 127 0" result="hardAlpha"/>
<feOffset/>
<feGaussianBlur stdDeviation="5.4445"/>
<feComposite in2="hardAlpha" operator="out"/>
<feColorMatrix type="matrix" values="0 0 0 0 0.12549 0 0 0 0 0.121569 0 0 0 0 0.509804 0 0 0 1 0"/>
<feBlend mode="normal" in2="BackgroundImageFix" result="effect1_dropShadow_777_44636"/>
<feBlend mode="normal" in="SourceGraphic" in2="effect1_dropShadow_777_44636" result="shape"/>
</filter>
</defs>
</svg>
